<svg width="42" height="72" viewBox="0 0 42 72" fill="none" xmlns="http://www.w3.org/2000/svg">
<path d="M38.5096 64.4688V66.6218C38.5096 68.9072 30.862 70.7561 21.4304 70.7561C11.9933 70.7561 4.3457 68.9072 4.3457 66.6218V64.4688C4.3457 66.7542 11.9933 68.6031 21.4304 68.6031C30.862 68.6031 38.5096 66.7542 38.5096 64.4688Z" fill="#9A3400" stroke="#002366" stroke-miterlimit="10"/>
<path d="M27.1667 37.1878C25.4938 38.7425 23.1262 39.7136 20.4973 39.7136C15.423 39.7136 11.3047 36.0843 11.3047 31.6017C11.3047 28.664 13.0721 26.0941 15.7176 24.6719C14.1336 26.2413 13.2444 28.0853 13.2444 30.2089C13.2444 34.6915 17.3571 38.3256 22.437 38.3256C24.2488 38.3256 25.9162 38.0363 27.1667 37.1878Z" fill="#9A3400" stroke="#002366" stroke-miterlimit="10"/>
<path d="M38.5096 64.4664C38.5096 66.7518 30.862 68.6008 21.4304 68.6008C11.9933 68.6008 4.3457 66.7518 4.3457 64.4664C4.3457 62.1859 11.9933 60.332 21.4304 60.332C30.862 60.332 38.5096 62.1859 38.5096 64.4664Z" fill="#D03400" stroke="#002366" stroke-miterlimit="10"/>
<path d="M21.4309 66.1318C25.544 66.1318 28.8783 65.2865 28.8783 64.2436C28.8783 63.2008 25.544 62.3555 21.4309 62.3555C17.3177 62.3555 13.9834 63.2008 13.9834 64.2436C13.9834 65.2865 17.3177 66.1318 21.4309 66.1318Z" fill="#2D2D2D"/>
<path d="M38.8297 11.9369C38.4614 11.2553 32.7281 1.05957 21.2065 1.00029C10.262 0.941012 3.85801 9.99562 3.22036 11.028C0.493864 15.4689 0.460882 22.9971 2.13196 27.2848L17.562 61.0778C18.7548 63.8342 19.5793 65 21.9321 65C24.2848 65 25.2907 63.36 26.3846 61.1717C30.9251 49.909 35.2897 38.2906 39.8302 27.028C40.4129 25.4621 42.6227 18.9662 38.8297 11.9369ZM27.5939 37.2039C25.9393 38.7698 23.5976 39.7479 20.9976 39.7479C15.9788 39.7479 11.9056 36.0924 11.9056 31.5775C11.9056 28.6186 13.6536 26.0301 16.2702 24.5976C17.6444 23.8369 19.266 23.4022 20.9976 23.4022C26.0218 23.4022 30.0951 27.0625 30.0951 31.5775C30.0951 33.7559 29.1441 35.7417 27.5939 37.2039Z" fill="#D03400" stroke="#002366" stroke-miterlimit="10"/>
<path d="M13.1891 4.45108C13.6771 4.95132 12.0992 5.42214 10.0767 6.9474C8.39041 8.21763 7.39814 9.40449 6.91556 8.98762C6.50347 8.6296 7.76143 7.32994 9.5074 6.12837C11.2534 4.9268 12.956 4.21567 13.1891 4.45108Z" fill="#E59170"/>
</svg>
