<svg xmlns="http://www.w3.org/2000/svg" viewBox="0 0 121.95 188.79"><defs><style>.cls-1{fill:#dce79f;}.cls-2{fill:#618e9d;}.cls-3{fill:#6dbacb;}.cls-4{fill:#005a93;}.cls-5{fill:#0063a1;}.cls-6{fill:#9fcb3a;}.cls-7{fill:#66a538;}.cls-8{fill:#221e1f;}.cls-9{fill:none;stroke:#221e1f;stroke-miterlimit:10;}</style></defs><title>role</title><g id="Layer_2" data-name="Layer 2"><polygon class="cls-1" points="88.22 38.6 80.03 52.05 84.86 53.41 90.85 40.12 88.22 38.6"/><path class="cls-2" d="M61,55.17c9.68-4.84,27.36-.77,28-.62a43.67,43.67,0,0,0-8.31-2.89c-31.87-7.77-42,17.68-42,17.68a24.36,24.36,0,0,0-1.44,2.82l4.35,7.19C42.79,76.67,51.15,60.1,61,55.17Z"/><path class="cls-2" d="M37.25,93.24l-4.74-6.33c-.41,1.77-.82,3.68-1.2,5.75-3,16,1,32.34,10,41-.09-.16-6-11.24-5.85-23.39S37.25,93.24,37.25,93.24Z"/><path class="cls-3" d="M89,54.55c-.62-.15-18.3-4.22-28,.62-9.85,4.93-18.21,21.5-19.4,24.18l-4.35-7.19c-2.57-4.73-5.65-11.29-6.91-17.39C28,43.5,26.25,33,26.25,33s9.53-13.21,7.49-15.54-7.49,4.27-7.49,4.27S23.92,6.19,21.2,7.16s-1,17.1-1,17.1-5.64-5.44-7-4.28,3.31,10.5,7.39,13.22c0,0,.19,23.32,4.47,36a155,155,0,0,0,7.42,17.76l4.74,6.33s-1.62,4.77-1.77,17,5.76,23.23,5.85,23.39a22.66,22.66,0,0,0,7.32,4.8s3.51,1.78,4.82,2.24L60.14,161l-6.67-20.35c-1.31-.46-4.82-2.24-4.82-2.24,2.85,6.53,9.11,21,9.86,23.37l7.15-3.42s-3-11.14-4.85-17.52a36.58,36.58,0,0,0,9.79-.53c1.86,5.15,5.64,15.77,5.79,17.23l8-2.72s-2.31-13.21-4.18-18.19c6.19-3.73,11.92-10.24,16.62-20.87C107.32,91.94,111.66,65.24,89,54.55Z"/><path class="cls-4" d="M73.86,157.57s4.09-4.27,13.22-3.89l2.33,9.53s6.61-5.25,10.11,0c0,0,2.91,3.3,1.75,4.27s-15.75,9.72-20,11.27Z"/><path class="cls-5" d="M56,163.59s6.41-5.24,13.41-6l4.08,13.8s5-6,10.88-1.75a12.19,12.19,0,0,1,3.89,7.19l-19.44,8.74S57.54,166.9,56,163.59Z"/><path class="cls-6" d="M93.84,31c-19.89-7.27-33.91,8-33.91,8s9.69-2.6,13-1.39,6,4.85,6,4.85C84.5,31.12,93.84,31,93.84,31Z"/><path class="cls-6" d="M93.84,31c7.09,7.44,2.6,18.34,2.6,18.34s3.63-3.46,8-1,8.31,10.38,8.31,10.38S113.74,38.21,93.84,31Z"/><path class="cls-7" d="M93.84,31S84.5,31.12,79,42.37c0,0,5.71-2.43,10-.52s7.46,7.44,7.46,7.44S100.93,38.39,93.84,31Z"/><path class="cls-8" d="M85.6,73.26c-.2.85-.79,1.43-1.33,1.31s-.81-.91-.61-1.75.78-1.43,1.32-1.31S85.79,72.42,85.6,73.26Z"/><path class="cls-8" d="M96.46,74.12c-.08.86-.6,1.51-1.14,1.46s-.92-.8-.84-1.66.6-1.52,1.15-1.46S96.55,73.25,96.46,74.12Z"/><path class="cls-9" d="M76.89,76.41s2.45,7.2,13.32,8,11.85-5.11,11.85-5.11"/></g></svg>