<svg xmlns="http://www.w3.org/2000/svg" viewBox="0 0 103.84 231.48"><defs><style>.cls-1{fill:#bf4598;}.cls-2{fill:#6b4983;}.cls-3{fill:#9477b5;}.cls-4,.cls-6{fill:none;stroke-miterlimit:10;}.cls-4{stroke:#6b4983;}.cls-5{fill:#221e1f;}.cls-6{stroke:#221e1f;}.cls-7{fill:#a33a85;}</style></defs><title>role</title><g id="Layer_2" data-name="Layer 2"><path class="cls-1" d="M33.17,65.86S25.87,90.39,2,96.35c0,0,6.57,5.6,9.24,10.92s9.46,7.57,9.46,7.57S42.6,82.17,43.38,75.08Z"/><path class="cls-2" d="M39.37,50.83a174.61,174.61,0,0,1-2.68-27.32C36.58,12.77,41.41,7.55,42,7c-14.22,8.84-8.07,37-8.07,37s.28,1.31.72,3.45l4.73,6.3Z"/><path class="cls-3" d="M85.54,212.26c-7.42.21-9.27,4.74-9.27,4.74s5.32-40.41,5-52.79c12.37-15.84,4.2-47.21,2.23-55.28-2.62-10.72-10.48-47.39-9.77-65S76.1,2.52,50.35,4.39A17.86,17.86,0,0,0,42,7c-.58.59-5.41,5.81-5.3,16.55a174.61,174.61,0,0,0,2.68,27.32v2.84l-4.73-6.3c1.25,6,3.82,18.59,5.23,27,.07.44.13.94.17,1.46V75.8L47.88,67l13.26-2.48s7,1.36,4.86,3.6-11.56,4.59-16.9,6.7-9.24,9.82-9.24,9.82v0c-.48,5.94-1.57,13.24-2.82,20.61-2.15,12.77-4.72,25.51-5,29.93-.89,12.56-2.33,31.42,15.59,36.95C36,161.43,36.24,149.27,35.79,142.46s1.26-37.31,1.26-37.31-1.72,30.5-1.26,37.31.18,19,11.82,29.57C51.36,183.13,60,216.59,60,216.59s-12.12-7.83-15.21.41,1,9.88,1,9.88a44.46,44.46,0,0,0,21-2.47c-.35-6.31-5.06-40.85-6.45-51,.42,0,.82,0,1.25,0a33.52,33.52,0,0,0,7.81-1.29c.53,10.48,2.34,48.27,1.1,52.7,0,0,21.62,2.47,22-1.23S93,212.06,85.54,212.26Z"/><path class="cls-2" d="M49.1,74.77c5.34-2.11,14.8-4.47,16.9-6.7s-4.86-3.6-4.86-3.6L47.88,67,40,75.8v.06a57,57,0,0,1-.17,8.68v0S43.77,76.88,49.1,74.77Z"/><path class="cls-4" d="M68.4,84.59s.25,22-3.82,29c0,0-4.77,5.81-4.61,10.5s4.85-3.58,4.85-3.58-.74,10,.62,9.88,2.47-9.14,2.47-9.14,1,7.9,2.59,7.16,1-6.79.74-9.38-2.47-6.92-2.47-6.92,5.93-13.46,6.06-24.21"/><path class="cls-4" d="M63,115.82c-1.22-.44-2.85-1.69-4.23-5a164.51,164.51,0,0,1-7.29-24.08"/><path class="cls-4" d="M44.81,89.53s5.69,22.11,12.85,26.55c0,0-1.31,8.28,2.31,11.37,0,0,.82,1.76,1.27-2.15"/><ellipse class="cls-5" cx="48.72" cy="19.21" rx="0.92" ry="1.45"/><ellipse class="cls-5" cx="56.27" cy="18.72" rx="0.92" ry="1.45"/><path class="cls-6" d="M46.81,27.12a12.77,12.77,0,0,0,5.85,1.08,18.67,18.67,0,0,0,6.55-1.08"/><path class="cls-7" d="M33.4,66.12s.47,3.87,1.94,6,3.51,5.1,8,2.94,7.7-5.09,10.08-5A9.39,9.39,0,0,0,59,68.29a29,29,0,0,0,3.34-2.72L47.88,62.51Z"/><path class="cls-7" d="M66.35,47.17a49.87,49.87,0,0,0-7.14,2,79.47,79.47,0,0,1-9.51,2.56L81,61.33s1-4.54.24-7.59,1.8-3.85.89-6.46-2.75-6.11-7.26-4.76a27.46,27.46,0,0,0-10,6.12"/><path class="cls-1" d="M31.47,42s-3.17,1.7-2.15,6.91c0,0-.66,4.87,1,6.68l1.63,1.81s-2,5.78,1.25,8.5,9.51,3.51,16.08,2.71,10-1.36,10-1.36,6.05,3.12,11.33,2.84,12-.8,10.42-8.72S64.34,52.26,60,51.7s-10.15.34-12.08.22-8.87.67-11.33-3.51c-2.64-4.49-3.08-6.92-3.08-6.92Z"/></g></svg>