<svg xmlns="http://www.w3.org/2000/svg" viewBox="0 0 174.12 188.79"><defs><style>.cls-1{fill:#d8e69d;}.cls-2{fill:#7e9b40;}.cls-3{fill:#ffe045;}.cls-4{fill:#cf8015;}.cls-5{fill:#efb025;}.cls-6{fill:#221e1f;}.cls-7{fill:none;stroke:#221e1f;stroke-miterlimit:10;}.cls-8{fill:#fff;}</style></defs><title>role</title><g id="Layer_2" data-name="Layer 2"><path class="cls-1" d="M121.92,142.39s-13-20.31-4.55-25.31,16.19,2.19,26.87,13.48l-2.67,1.54s-8.76-9.66-12.65-12.15-6.67-3.29-9.86-1.49-2.09,7.17-1.69,8.76,6.13,12.85,6.95,13.94Z"/><path class="cls-2" d="M114.57,140.56s23.53-11.9,30.11-16.2c0,0,24.29,15.94,24.79,17.46s-2,5.82-2,5.82-1.52,1.27-4.56,3.29-29.09,21.76-32.64,14.42S113.55,144.35,114.57,140.56Z"/><path class="cls-3" d="M124.17,117.08l-2.55.71L109.26,96.33l-20.35-28c-.26-3.48.27-19.54-3.21-35.33-3-13.78-12.48-19.19-14.84-20.35-7-1.83-16.3-1.46-26.54,5.94C23.77,33.47,31.4,85.72,31.4,85.72a147.55,147.55,0,0,0,6.1,30.46c5.18,15.69,9.59,18.43,9.59,18.43L25.92,164.16s-2.59-4.73-4.72-6.25-7-3.2-12.18,1.68-2.14,5.63-2.14,5.63,12.34,9,16.76,12,6.55-4.26,11.12-12.64,17.51-25.8,17.51-25.8c6.7,5.55,15.38,2.8,15.38,2.8A105.47,105.47,0,0,0,69,154.86a11.26,11.26,0,0,0,7,9l14.77,5.79c-2.74,11.27,3.35,14.16,5.64,14s4.72-13.86,5.48-16.45.31-4.72-3-5a87.7,87.7,0,0,1-18-4.42c-5.08-2-6.7-18.66-6.84-20.18-.09,0-.17.12-.26.18a75.42,75.42,0,0,0,10.42-22.21c3.21-11.4,4.23-26.77,4.23-26.77l4.08,4.14,1.21,1.35S88,121.63,78.29,133.61C88.11,121.79,94,94,94,94l-1.21-1.35s20.38,22.72,22.42,26.29,3.67,8.26,7,6.63,6.31-5.61,6.31-5.61Z"/><path class="cls-4" d="M83.84,20.06C85.56,22.19,101,37.9,97,75l12.29,21.33,1,1.38L97.11,74.87c4-37.1-11-53.23-13.13-54.94a27.87,27.87,0,0,0-13.67-7.49s.2.08.55.25C77.92,14.54,82.69,18.63,83.84,20.06Z"/><path class="cls-5" d="M85.7,33c3.48,15.79,3,31.85,3.21,35.33l20.35,28L97,75c4-37.1-11.41-52.81-13.13-54.94-1.15-1.43-5.92-5.52-13-7.37C73.22,13.85,82.67,19.26,85.7,33Z"/><path class="cls-4" d="M74.05,137.45v.13a18.37,18.37,0,0,0,4.23-4A17.48,17.48,0,0,1,74.05,137.45Z"/><path class="cls-5" d="M92.53,92.92l-4.08-4.14s-1,15.37-4.23,26.77A75.42,75.42,0,0,1,73.8,137.76c.09-.06.17-.13.26-.18v-.13a17.48,17.48,0,0,0,4.24-3.84c9.66-12,15.45-39.34,15.45-39.34Z"/><ellipse class="cls-6" cx="47.44" cy="28.69" rx="0.85" ry="1.71"/><ellipse class="cls-6" cx="61.76" cy="27.74" rx="0.85" ry="1.71"/><path class="cls-7" d="M49.09,38.38s.89,1.47,5,1.47,5.76-1.47,5.76-1.47"/><path class="cls-6" d="M61.29,9s13.19-.44,14.93,0,1.85,6-3.87,9.58c-7,4.39-12-3.62-12-3.62S56.58,8.82,61.29,9Z"/><path class="cls-6" d="M40.3,9.56s12.19-.39,13.8,0,1.7,5.38-3.58,8.6c-6.45,3.94-11.13-3.24-11.13-3.24S36,9.39,40.3,9.56Z"/><rect class="cls-6" x="54.5" y="9.8" width="4.88" height="2.02"/><path class="cls-5" d="M15.07,168.14c3.53,2.07,6.7,6,9.79,5.4s10-8.79,10-8.79h0c-4.57,8.38-6.7,15.69-11.12,12.64s-17-11.54-17-11.54-1.5-.94,0-3.32C6.64,162.53,11.53,166.06,15.07,168.14Z"/><polygon class="cls-8" points="45.25 16.81 40.52 13.47 42.77 13.85 47.49 17.19 45.25 16.81"/><polygon class="cls-8" points="66.82 17.31 62.09 13.96 64.34 14.35 69.06 17.69 66.82 17.31"/></g></svg>