<svg width="1001" height="1334" viewBox="0 0 1001 1334" fill="none" xmlns="http://www.w3.org/2000/svg">
<path d="M936.384 364.866C894.72 304.169 808.976 270.677 724.494 252.143C731.301 248.349 737.888 244.447 743.982 240.491C820.394 190.687 825.06 102.893 825.06 102.893C825.06 102.893 772.636 90.3741 645.063 150.313C616.903 163.536 595.714 179.361 579.685 195.998C582.759 182.233 584.57 167.492 584.57 151.776C584.57 63.494 498.661 0.358032 498.661 0.358032C498.661 0.358032 411.71 57.2617 411.71 150.8C411.71 165.758 413.082 179.686 415.442 192.584C399.908 177.247 379.762 162.669 353.577 150.367C226.004 90.4283 173.581 102.947 173.581 102.947C173.581 102.947 178.247 190.741 254.659 240.545C261.026 244.664 267.778 248.675 274.86 252.577C190.927 271.165 106.006 304.603 64.6713 364.921C-32.7102 506.746 4.89204 734.144 22.8972 827.195C42.9883 930.976 185.053 1333.26 500.473 1333.69C815.892 1333.26 957.958 930.976 978.049 827.195C996.109 734.144 1033.71 506.746 936.384 364.866Z" fill="black" fill-opacity="0.2"/>
</svg>
