<svg width="20" height="22" viewBox="0 0 20 22" fill="none" xmlns="http://www.w3.org/2000/svg">
<g clip-path="url(#clip0_1639_738)">
<path d="M14.6395 6.27539H9.99988H5.3603L2.3916 8.68302L4.80387 18.6843L9.99988 21.9991L15.1959 18.6843L17.4849 8.68302L14.6395 6.27539Z" fill="#F27579"/>
<path d="M19.0326 10.5062L18.5631 8.09854L16.9507 4.42556L13.2548 2.60327L10.6197 2.17886L11.4859 0.220884L10 0C10 0 9.66646 1.51621 9.54948 2.15046L6.74518 2.60327L3.04932 4.42398L1.43693 8.09854L0.967436 10.5062L0 11.5554L2.08188 10.4446L2.81537 9.20927L3.49036 9.9508L2.96238 11.5554L5.16598 10.1401L6.45273 8.80852L6.68669 11.0915L8.91559 8.8385L10 8.16007L11.0844 8.8385L13.3133 11.0915L13.5473 8.80694L14.834 10.1386L17.0376 11.5538L16.5096 9.94923L17.1846 9.20769L17.9181 10.4431L20 11.5538L19.0326 10.5062Z" fill="#73C483"/>
</g>
<defs>
<clipPath id="clip0_1639_738">
<rect width="20" height="22" fill="white"/>
</clipPath>
</defs>
</svg>
